<mxfile host="app.diagrams.net" modified="2021-12-14T06:44:23.731Z" agent="5.0 (Windows NT 10.0; Win64; x64) AppleWebKit/537.36 (KHTML, like Gecko) Chrome/96.0.4664.93 Safari/537.36" etag="sqYnKrdqKQJpGGVCW6Kg" version="15.7.0" type="github">
  <diagram id="A8vIp2TGK7wljJM9ZnRp" name="Page-1">
    <mxGraphModel dx="1038" dy="539" grid="1" gridSize="10" guides="1" tooltips="1" connect="1" arrows="1" fold="1" page="1" pageScale="1" pageWidth="827" pageHeight="1169" math="0" shadow="0">
      <root>
        <mxCell id="0" />
        <mxCell id="1" parent="0" />
        <mxCell id="Fw1_F-YedPjkSl88bPaI-1" value="" style="rounded=0;whiteSpace=wrap;html=1;" parent="1" vertex="1">
          <mxGeometry x="120" y="17" width="120" height="60" as="geometry" />
        </mxCell>
        <mxCell id="Fw1_F-YedPjkSl88bPaI-2" value="Home Assistant" style="text;html=1;strokeColor=none;fillColor=none;align=center;verticalAlign=middle;whiteSpace=wrap;rounded=0;" parent="1" vertex="1">
          <mxGeometry x="130" y="27" width="100" height="40" as="geometry" />
        </mxCell>
        <mxCell id="Fw1_F-YedPjkSl88bPaI-3" value="" style="endArrow=classic;startArrow=none;html=1;rounded=0;exitX=1;exitY=0.5;exitDx=0;exitDy=0;entryX=0;entryY=0.5;entryDx=0;entryDy=0;" parent="1" source="xUG-7laHgLKFzoiEa8Dh-1" target="Fw1_F-YedPjkSl88bPaI-7" edge="1">
          <mxGeometry width="50" height="50" relative="1" as="geometry">
            <mxPoint x="260" y="70" as="sourcePoint" />
            <mxPoint x="310" y="20" as="targetPoint" />
          </mxGeometry>
        </mxCell>
        <mxCell id="Fw1_F-YedPjkSl88bPaI-7" value="" style="rounded=0;whiteSpace=wrap;html=1;" parent="1" vertex="1">
          <mxGeometry x="320" y="17" width="120" height="60" as="geometry" />
        </mxCell>
        <mxCell id="Fw1_F-YedPjkSl88bPaI-8" value="Raspberry Pi" style="text;html=1;strokeColor=none;fillColor=none;align=center;verticalAlign=middle;whiteSpace=wrap;rounded=0;" parent="1" vertex="1">
          <mxGeometry x="330" y="32" width="100" height="30" as="geometry" />
        </mxCell>
        <mxCell id="Fw1_F-YedPjkSl88bPaI-9" value="" style="rounded=0;whiteSpace=wrap;html=1;" parent="1" vertex="1">
          <mxGeometry x="520" y="17" width="120" height="60" as="geometry" />
        </mxCell>
        <mxCell id="Fw1_F-YedPjkSl88bPaI-10" value="" style="endArrow=classic;startArrow=none;html=1;rounded=0;exitX=1;exitY=0.5;exitDx=0;exitDy=0;entryX=0;entryY=0.5;entryDx=0;entryDy=0;" parent="1" source="xUG-7laHgLKFzoiEa8Dh-3" target="Fw1_F-YedPjkSl88bPaI-9" edge="1">
          <mxGeometry width="50" height="50" relative="1" as="geometry">
            <mxPoint x="380" y="140" as="sourcePoint" />
            <mxPoint x="430" y="90" as="targetPoint" />
          </mxGeometry>
        </mxCell>
        <mxCell id="Fw1_F-YedPjkSl88bPaI-12" value="ESP8266" style="text;html=1;strokeColor=none;fillColor=none;align=center;verticalAlign=middle;whiteSpace=wrap;rounded=0;" parent="1" vertex="1">
          <mxGeometry x="550" y="32" width="60" height="30" as="geometry" />
        </mxCell>
        <mxCell id="Fw1_F-YedPjkSl88bPaI-13" value="" style="rounded=0;whiteSpace=wrap;html=1;" parent="1" vertex="1">
          <mxGeometry x="120" y="180" width="120" height="60" as="geometry" />
        </mxCell>
        <mxCell id="Fw1_F-YedPjkSl88bPaI-14" value="Raspberry Pi에서&lt;br&gt;서버 생성" style="text;html=1;strokeColor=none;fillColor=none;align=center;verticalAlign=middle;whiteSpace=wrap;rounded=0;" parent="1" vertex="1">
          <mxGeometry x="120" y="180" width="120" height="60" as="geometry" />
        </mxCell>
        <mxCell id="4zu_zJMsxltXxvGF6ThB-1" value="" style="rounded=0;whiteSpace=wrap;html=1;" parent="1" vertex="1">
          <mxGeometry x="320" y="180" width="120" height="60" as="geometry" />
        </mxCell>
        <mxCell id="4zu_zJMsxltXxvGF6ThB-2" value="Raspberry Pi와&lt;br&gt;Home Assistant&amp;nbsp; 연동" style="text;html=1;strokeColor=none;fillColor=none;align=center;verticalAlign=middle;whiteSpace=wrap;rounded=0;" parent="1" vertex="1">
          <mxGeometry x="320" y="180" width="120" height="60" as="geometry" />
        </mxCell>
        <mxCell id="4zu_zJMsxltXxvGF6ThB-3" value="" style="rounded=0;whiteSpace=wrap;html=1;" parent="1" vertex="1">
          <mxGeometry x="520" y="180" width="120" height="60" as="geometry" />
        </mxCell>
        <mxCell id="4zu_zJMsxltXxvGF6ThB-4" value="ESP8266 센서값을&lt;br&gt;Home Assistant로 &lt;br&gt;전송" style="text;html=1;strokeColor=none;fillColor=none;align=center;verticalAlign=middle;whiteSpace=wrap;rounded=0;" parent="1" vertex="1">
          <mxGeometry x="520" y="180" width="120" height="60" as="geometry" />
        </mxCell>
        <mxCell id="4zu_zJMsxltXxvGF6ThB-5" value="" style="rounded=0;whiteSpace=wrap;html=1;" parent="1" vertex="1">
          <mxGeometry x="520" y="320" width="120" height="60" as="geometry" />
        </mxCell>
        <mxCell id="4zu_zJMsxltXxvGF6ThB-6" value="센서값들을 기반으로&lt;br&gt;Home Assistant에서&lt;br&gt;이벤트 발생" style="text;html=1;strokeColor=none;fillColor=none;align=center;verticalAlign=middle;whiteSpace=wrap;rounded=0;" parent="1" vertex="1">
          <mxGeometry x="520" y="320" width="120" height="60" as="geometry" />
        </mxCell>
        <mxCell id="4zu_zJMsxltXxvGF6ThB-7" value="" style="rounded=0;whiteSpace=wrap;html=1;" parent="1" vertex="1">
          <mxGeometry x="320" y="320" width="120" height="60" as="geometry" />
        </mxCell>
        <mxCell id="4zu_zJMsxltXxvGF6ThB-8" value="Home Assistant에서&lt;br&gt;ESP8266에 &lt;br&gt;명령 전송" style="text;html=1;strokeColor=none;fillColor=none;align=center;verticalAlign=middle;whiteSpace=wrap;rounded=0;" parent="1" vertex="1">
          <mxGeometry x="320" y="320" width="120" height="60" as="geometry" />
        </mxCell>
        <mxCell id="4zu_zJMsxltXxvGF6ThB-9" value="" style="rounded=0;whiteSpace=wrap;html=1;" parent="1" vertex="1">
          <mxGeometry x="120" y="320" width="120" height="60" as="geometry" />
        </mxCell>
        <mxCell id="4zu_zJMsxltXxvGF6ThB-10" value="ESP8266에서&lt;br&gt;Arduino 명령 실행" style="text;html=1;strokeColor=none;fillColor=none;align=center;verticalAlign=middle;whiteSpace=wrap;rounded=0;" parent="1" vertex="1">
          <mxGeometry x="120" y="320" width="120" height="60" as="geometry" />
        </mxCell>
        <mxCell id="xUG-7laHgLKFzoiEa8Dh-1" value="연동" style="text;html=1;strokeColor=none;fillColor=none;align=center;verticalAlign=middle;whiteSpace=wrap;rounded=0;" vertex="1" parent="1">
          <mxGeometry x="260" y="32" width="40" height="30" as="geometry" />
        </mxCell>
        <mxCell id="xUG-7laHgLKFzoiEa8Dh-2" value="" style="endArrow=none;startArrow=classic;html=1;rounded=0;exitX=1;exitY=0.5;exitDx=0;exitDy=0;entryX=0;entryY=0.5;entryDx=0;entryDy=0;" edge="1" parent="1" source="Fw1_F-YedPjkSl88bPaI-1" target="xUG-7laHgLKFzoiEa8Dh-1">
          <mxGeometry width="50" height="50" relative="1" as="geometry">
            <mxPoint x="240" y="47" as="sourcePoint" />
            <mxPoint x="320" y="47" as="targetPoint" />
          </mxGeometry>
        </mxCell>
        <mxCell id="xUG-7laHgLKFzoiEa8Dh-3" value="연동" style="text;html=1;strokeColor=none;fillColor=none;align=center;verticalAlign=middle;whiteSpace=wrap;rounded=0;" vertex="1" parent="1">
          <mxGeometry x="460" y="32" width="40" height="30" as="geometry" />
        </mxCell>
        <mxCell id="xUG-7laHgLKFzoiEa8Dh-4" value="" style="endArrow=none;startArrow=classic;html=1;rounded=0;exitX=1;exitY=0.5;exitDx=0;exitDy=0;entryX=0;entryY=0.5;entryDx=0;entryDy=0;" edge="1" parent="1" source="Fw1_F-YedPjkSl88bPaI-7" target="xUG-7laHgLKFzoiEa8Dh-3">
          <mxGeometry width="50" height="50" relative="1" as="geometry">
            <mxPoint x="440" y="47" as="sourcePoint" />
            <mxPoint x="520" y="47" as="targetPoint" />
          </mxGeometry>
        </mxCell>
        <mxCell id="xUG-7laHgLKFzoiEa8Dh-6" value="" style="endArrow=classic;html=1;rounded=0;entryX=0.5;entryY=1;entryDx=0;entryDy=0;" edge="1" parent="1" target="Fw1_F-YedPjkSl88bPaI-1">
          <mxGeometry width="50" height="50" relative="1" as="geometry">
            <mxPoint x="180" y="120" as="sourcePoint" />
            <mxPoint x="210" y="90" as="targetPoint" />
          </mxGeometry>
        </mxCell>
        <mxCell id="xUG-7laHgLKFzoiEa8Dh-7" value="" style="endArrow=classic;html=1;rounded=0;entryX=0.5;entryY=1;entryDx=0;entryDy=0;" edge="1" parent="1" target="Fw1_F-YedPjkSl88bPaI-9">
          <mxGeometry width="50" height="50" relative="1" as="geometry">
            <mxPoint x="580" y="120" as="sourcePoint" />
            <mxPoint x="600" y="90" as="targetPoint" />
          </mxGeometry>
        </mxCell>
        <mxCell id="xUG-7laHgLKFzoiEa8Dh-8" value="" style="endArrow=none;html=1;rounded=0;startArrow=none;" edge="1" parent="1" source="xUG-7laHgLKFzoiEa8Dh-9">
          <mxGeometry width="50" height="50" relative="1" as="geometry">
            <mxPoint x="180" y="120" as="sourcePoint" />
            <mxPoint x="580" y="120" as="targetPoint" />
          </mxGeometry>
        </mxCell>
        <mxCell id="xUG-7laHgLKFzoiEa8Dh-9" value="연동" style="text;html=1;strokeColor=none;fillColor=none;align=center;verticalAlign=middle;whiteSpace=wrap;rounded=0;" vertex="1" parent="1">
          <mxGeometry x="350" y="105" width="60" height="30" as="geometry" />
        </mxCell>
        <mxCell id="xUG-7laHgLKFzoiEa8Dh-10" value="" style="endArrow=none;html=1;rounded=0;" edge="1" parent="1" target="xUG-7laHgLKFzoiEa8Dh-9">
          <mxGeometry width="50" height="50" relative="1" as="geometry">
            <mxPoint x="180" y="120" as="sourcePoint" />
            <mxPoint x="580" y="120" as="targetPoint" />
          </mxGeometry>
        </mxCell>
        <mxCell id="xUG-7laHgLKFzoiEa8Dh-11" value="" style="endArrow=classic;html=1;rounded=0;exitX=1;exitY=0.5;exitDx=0;exitDy=0;entryX=0;entryY=0.5;entryDx=0;entryDy=0;" edge="1" parent="1" source="Fw1_F-YedPjkSl88bPaI-14" target="4zu_zJMsxltXxvGF6ThB-2">
          <mxGeometry width="50" height="50" relative="1" as="geometry">
            <mxPoint x="270" y="320" as="sourcePoint" />
            <mxPoint x="320" y="270" as="targetPoint" />
          </mxGeometry>
        </mxCell>
        <mxCell id="xUG-7laHgLKFzoiEa8Dh-12" value="" style="endArrow=classic;html=1;rounded=0;exitX=1;exitY=0.5;exitDx=0;exitDy=0;entryX=0;entryY=0.5;entryDx=0;entryDy=0;" edge="1" parent="1" source="4zu_zJMsxltXxvGF6ThB-2" target="4zu_zJMsxltXxvGF6ThB-4">
          <mxGeometry width="50" height="50" relative="1" as="geometry">
            <mxPoint x="250" y="220" as="sourcePoint" />
            <mxPoint x="330" y="220" as="targetPoint" />
          </mxGeometry>
        </mxCell>
        <mxCell id="xUG-7laHgLKFzoiEa8Dh-13" value="" style="endArrow=classic;html=1;rounded=0;exitX=0.5;exitY=1;exitDx=0;exitDy=0;entryX=0.5;entryY=0;entryDx=0;entryDy=0;" edge="1" parent="1" source="4zu_zJMsxltXxvGF6ThB-4" target="4zu_zJMsxltXxvGF6ThB-6">
          <mxGeometry width="50" height="50" relative="1" as="geometry">
            <mxPoint x="260" y="230" as="sourcePoint" />
            <mxPoint x="340" y="230" as="targetPoint" />
          </mxGeometry>
        </mxCell>
        <mxCell id="xUG-7laHgLKFzoiEa8Dh-14" value="" style="endArrow=classic;html=1;rounded=0;exitX=0;exitY=0.5;exitDx=0;exitDy=0;entryX=1;entryY=0.5;entryDx=0;entryDy=0;" edge="1" parent="1" source="4zu_zJMsxltXxvGF6ThB-6" target="4zu_zJMsxltXxvGF6ThB-8">
          <mxGeometry width="50" height="50" relative="1" as="geometry">
            <mxPoint x="270" y="240" as="sourcePoint" />
            <mxPoint x="350" y="240" as="targetPoint" />
          </mxGeometry>
        </mxCell>
        <mxCell id="xUG-7laHgLKFzoiEa8Dh-15" value="" style="endArrow=classic;html=1;rounded=0;exitX=0;exitY=0.5;exitDx=0;exitDy=0;entryX=1;entryY=0.5;entryDx=0;entryDy=0;" edge="1" parent="1" source="4zu_zJMsxltXxvGF6ThB-8" target="4zu_zJMsxltXxvGF6ThB-10">
          <mxGeometry width="50" height="50" relative="1" as="geometry">
            <mxPoint x="280" y="250" as="sourcePoint" />
            <mxPoint x="360" y="250" as="targetPoint" />
          </mxGeometry>
        </mxCell>
        <mxCell id="xUG-7laHgLKFzoiEa8Dh-20" value="" style="endArrow=none;html=1;rounded=0;" edge="1" parent="1">
          <mxGeometry width="50" height="50" relative="1" as="geometry">
            <mxPoint x="640" y="210" as="sourcePoint" />
            <mxPoint x="680" y="210" as="targetPoint" />
          </mxGeometry>
        </mxCell>
        <mxCell id="xUG-7laHgLKFzoiEa8Dh-21" value="" style="endArrow=none;html=1;rounded=0;" edge="1" parent="1">
          <mxGeometry width="50" height="50" relative="1" as="geometry">
            <mxPoint x="680" y="430" as="sourcePoint" />
            <mxPoint x="680" y="210" as="targetPoint" />
          </mxGeometry>
        </mxCell>
        <mxCell id="xUG-7laHgLKFzoiEa8Dh-22" value="" style="endArrow=classic;html=1;rounded=0;" edge="1" parent="1">
          <mxGeometry width="50" height="50" relative="1" as="geometry">
            <mxPoint x="680" y="430" as="sourcePoint" />
            <mxPoint x="680" y="480" as="targetPoint" />
          </mxGeometry>
        </mxCell>
        <mxCell id="xUG-7laHgLKFzoiEa8Dh-23" value="" style="rounded=0;whiteSpace=wrap;html=1;" vertex="1" parent="1">
          <mxGeometry x="620" y="480" width="120" height="60" as="geometry" />
        </mxCell>
        <mxCell id="xUG-7laHgLKFzoiEa8Dh-24" value="Home Assistant에서&lt;br&gt;센서값에 변화가 있는지 체크" style="text;html=1;strokeColor=none;fillColor=none;align=center;verticalAlign=middle;whiteSpace=wrap;rounded=0;" vertex="1" parent="1">
          <mxGeometry x="620" y="480" width="120" height="60" as="geometry" />
        </mxCell>
        <mxCell id="xUG-7laHgLKFzoiEa8Dh-25" value="" style="rounded=0;whiteSpace=wrap;html=1;" vertex="1" parent="1">
          <mxGeometry x="260" y="480" width="120" height="60" as="geometry" />
        </mxCell>
        <mxCell id="xUG-7laHgLKFzoiEa8Dh-26" value="바뀐 센서 값을 &lt;br&gt;대시보드에 표시" style="text;html=1;strokeColor=none;fillColor=none;align=center;verticalAlign=middle;whiteSpace=wrap;rounded=0;" vertex="1" parent="1">
          <mxGeometry x="260" y="480" width="120" height="60" as="geometry" />
        </mxCell>
        <mxCell id="xUG-7laHgLKFzoiEa8Dh-27" value="" style="endArrow=classic;html=1;rounded=0;entryX=1;entryY=0.5;entryDx=0;entryDy=0;startArrow=none;" edge="1" parent="1" source="xUG-7laHgLKFzoiEa8Dh-28" target="xUG-7laHgLKFzoiEa8Dh-26">
          <mxGeometry width="50" height="50" relative="1" as="geometry">
            <mxPoint x="620" y="510" as="sourcePoint" />
            <mxPoint x="640" y="580" as="targetPoint" />
          </mxGeometry>
        </mxCell>
        <mxCell id="xUG-7laHgLKFzoiEa8Dh-28" value="만약 센서값이 변했다면" style="text;html=1;strokeColor=none;fillColor=none;align=center;verticalAlign=middle;whiteSpace=wrap;rounded=0;" vertex="1" parent="1">
          <mxGeometry x="450" y="495" width="130" height="30" as="geometry" />
        </mxCell>
        <mxCell id="xUG-7laHgLKFzoiEa8Dh-29" value="" style="endArrow=none;html=1;rounded=0;entryX=1;entryY=0.5;entryDx=0;entryDy=0;" edge="1" parent="1" target="xUG-7laHgLKFzoiEa8Dh-28">
          <mxGeometry width="50" height="50" relative="1" as="geometry">
            <mxPoint x="620" y="510" as="sourcePoint" />
            <mxPoint x="380" y="510" as="targetPoint" />
          </mxGeometry>
        </mxCell>
        <mxCell id="xUG-7laHgLKFzoiEa8Dh-31" value="" style="endArrow=none;html=1;rounded=0;entryX=0.5;entryY=1;entryDx=0;entryDy=0;startArrow=none;" edge="1" parent="1" source="xUG-7laHgLKFzoiEa8Dh-35" target="xUG-7laHgLKFzoiEa8Dh-24">
          <mxGeometry width="50" height="50" relative="1" as="geometry">
            <mxPoint x="680" y="670" as="sourcePoint" />
            <mxPoint x="710" y="540" as="targetPoint" />
          </mxGeometry>
        </mxCell>
        <mxCell id="xUG-7laHgLKFzoiEa8Dh-32" value="" style="endArrow=none;html=1;rounded=0;" edge="1" parent="1">
          <mxGeometry width="50" height="50" relative="1" as="geometry">
            <mxPoint x="680" y="670" as="sourcePoint" />
            <mxPoint x="780" y="670" as="targetPoint" />
          </mxGeometry>
        </mxCell>
        <mxCell id="xUG-7laHgLKFzoiEa8Dh-33" value="" style="endArrow=none;html=1;rounded=0;" edge="1" parent="1">
          <mxGeometry width="50" height="50" relative="1" as="geometry">
            <mxPoint x="780" y="670" as="sourcePoint" />
            <mxPoint x="780" y="510" as="targetPoint" />
          </mxGeometry>
        </mxCell>
        <mxCell id="xUG-7laHgLKFzoiEa8Dh-34" value="" style="endArrow=classic;html=1;rounded=0;entryX=1;entryY=0.5;entryDx=0;entryDy=0;" edge="1" parent="1" target="xUG-7laHgLKFzoiEa8Dh-24">
          <mxGeometry width="50" height="50" relative="1" as="geometry">
            <mxPoint x="780" y="510" as="sourcePoint" />
            <mxPoint x="450" y="740" as="targetPoint" />
          </mxGeometry>
        </mxCell>
        <mxCell id="xUG-7laHgLKFzoiEa8Dh-35" value="만약 센서값이 변하지 않았다면" style="text;html=1;strokeColor=none;fillColor=none;align=center;verticalAlign=middle;whiteSpace=wrap;rounded=0;" vertex="1" parent="1">
          <mxGeometry x="630" y="580" width="100" height="40" as="geometry" />
        </mxCell>
        <mxCell id="xUG-7laHgLKFzoiEa8Dh-36" value="" style="endArrow=none;html=1;rounded=0;" edge="1" parent="1" target="xUG-7laHgLKFzoiEa8Dh-35">
          <mxGeometry width="50" height="50" relative="1" as="geometry">
            <mxPoint x="680" y="670" as="sourcePoint" />
            <mxPoint x="680" y="540" as="targetPoint" />
          </mxGeometry>
        </mxCell>
        <mxCell id="xUG-7laHgLKFzoiEa8Dh-41" value="" style="rounded=0;whiteSpace=wrap;html=1;" vertex="1" parent="1">
          <mxGeometry x="260" y="720" width="120" height="60" as="geometry" />
        </mxCell>
        <mxCell id="xUG-7laHgLKFzoiEa8Dh-42" value="바뀐 센서 값을 &lt;br&gt;대시보드에 표시" style="text;html=1;strokeColor=none;fillColor=none;align=center;verticalAlign=middle;whiteSpace=wrap;rounded=0;" vertex="1" parent="1">
          <mxGeometry x="260" y="720" width="120" height="60" as="geometry" />
        </mxCell>
        <mxCell id="xUG-7laHgLKFzoiEa8Dh-44" value="" style="endArrow=classic;html=1;rounded=0;exitX=0.5;exitY=1;exitDx=0;exitDy=0;entryX=0.5;entryY=0;entryDx=0;entryDy=0;startArrow=none;" edge="1" parent="1" source="xUG-7laHgLKFzoiEa8Dh-45" target="xUG-7laHgLKFzoiEa8Dh-42">
          <mxGeometry width="50" height="50" relative="1" as="geometry">
            <mxPoint x="310" y="600" as="sourcePoint" />
            <mxPoint x="360" y="550" as="targetPoint" />
          </mxGeometry>
        </mxCell>
        <mxCell id="xUG-7laHgLKFzoiEa8Dh-45" value="만약 바뀐 센서값이 &lt;br&gt;자동화 조건과 일치한다면" style="text;html=1;strokeColor=none;fillColor=none;align=center;verticalAlign=middle;whiteSpace=wrap;rounded=0;" vertex="1" parent="1">
          <mxGeometry x="240" y="595" width="160" height="35" as="geometry" />
        </mxCell>
        <mxCell id="xUG-7laHgLKFzoiEa8Dh-46" value="" style="endArrow=none;html=1;rounded=0;exitX=0.5;exitY=1;exitDx=0;exitDy=0;entryX=0.5;entryY=0;entryDx=0;entryDy=0;" edge="1" parent="1" source="xUG-7laHgLKFzoiEa8Dh-26" target="xUG-7laHgLKFzoiEa8Dh-45">
          <mxGeometry width="50" height="50" relative="1" as="geometry">
            <mxPoint x="320" y="540" as="sourcePoint" />
            <mxPoint x="320" y="750" as="targetPoint" />
          </mxGeometry>
        </mxCell>
        <mxCell id="xUG-7laHgLKFzoiEa8Dh-47" value="" style="endArrow=none;html=1;rounded=0;entryX=0;entryY=0.5;entryDx=0;entryDy=0;" edge="1" parent="1" target="xUG-7laHgLKFzoiEa8Dh-26">
          <mxGeometry width="50" height="50" relative="1" as="geometry">
            <mxPoint x="190" y="510" as="sourcePoint" />
            <mxPoint x="250" y="500" as="targetPoint" />
          </mxGeometry>
        </mxCell>
        <mxCell id="xUG-7laHgLKFzoiEa8Dh-48" value="" style="endArrow=none;html=1;rounded=0;" edge="1" parent="1">
          <mxGeometry width="50" height="50" relative="1" as="geometry">
            <mxPoint x="190" y="510" as="sourcePoint" />
            <mxPoint x="190" y="430" as="targetPoint" />
          </mxGeometry>
        </mxCell>
        <mxCell id="xUG-7laHgLKFzoiEa8Dh-49" value="" style="endArrow=classic;html=1;rounded=0;startArrow=none;" edge="1" parent="1" source="xUG-7laHgLKFzoiEa8Dh-50">
          <mxGeometry width="50" height="50" relative="1" as="geometry">
            <mxPoint x="190" y="460" as="sourcePoint" />
            <mxPoint x="680" y="430" as="targetPoint" />
          </mxGeometry>
        </mxCell>
        <mxCell id="xUG-7laHgLKFzoiEa8Dh-50" value="만약 바뀐 센서값이 &lt;br&gt;자동화 조건과 일치하지 않는다면" style="text;html=1;strokeColor=none;fillColor=none;align=center;verticalAlign=middle;whiteSpace=wrap;rounded=0;" vertex="1" parent="1">
          <mxGeometry x="360" y="410" width="130" height="40" as="geometry" />
        </mxCell>
        <mxCell id="xUG-7laHgLKFzoiEa8Dh-51" value="" style="endArrow=none;html=1;rounded=0;" edge="1" parent="1">
          <mxGeometry width="50" height="50" relative="1" as="geometry">
            <mxPoint x="190" y="430" as="sourcePoint" />
            <mxPoint x="360" y="430" as="targetPoint" />
          </mxGeometry>
        </mxCell>
      </root>
    </mxGraphModel>
  </diagram>
</mxfile>
